# Blender v2.90.1 OBJ File: 'apartment.blend'
# www.blender.org
mtllib apartment.mtl
o Cube
v 5.000000 0.000000 4.000000
v 5.000000 2.000000 4.000000
v -4.000000 2.000000 4.000000
v -4.000000 0.000000 4.000000
v -0.729206 0.000000 -4.000000
v -0.729206 2.000000 -4.000000
v 5.000000 0.000000 -4.000000
v 5.000000 2.000000 -4.000000
v -4.000000 0.000000 -4.000000
v -4.000000 2.000000 -4.000000
v -2.000000 2.000000 -4.000000
v -2.000000 0.000000 -4.000000
v -0.729206 1.853465 -4.000000
v -2.000000 1.853465 -4.000000
v 0.712804 0.000000 -4.000000
v 0.712804 2.000000 -4.000000
v 0.712804 0.000000 -9.008963
v 0.712804 2.000000 -9.008963
v -4.000000 0.000000 -9.031120
v -4.000000 2.000000 -9.031120
v 1.747004 0.000000 4.000000
v 1.747004 2.000000 4.000000
v -0.183826 0.000000 4.000000
v -0.183826 2.000000 4.000000
v -0.183826 2.000000 4.000000
v 1.747004 2.000000 4.000000
v 1.747004 0.000000 4.000000
v -0.183826 0.000000 4.000000
v -0.183826 2.000000 4.000000
v 1.747004 2.000000 4.000000
v 1.747004 0.000000 4.000000
v -0.183826 0.000000 4.000000
v 0.350772 1.724554 4.000000
v 1.212405 1.724554 4.000000
v 1.212405 0.832054 4.000000
v 0.350772 0.832054 4.000000
v 1.212405 0.832054 3.751828
v 0.350772 0.832054 3.751828
v 1.212405 0.733843 4.008249
v 0.350772 0.733843 4.008249
v 0.350772 1.281835 4.000000
v 0.788219 1.281835 4.000000
v 0.788219 1.281835 4.000000
v 0.796333 1.724554 4.000000
v 1.213546 1.281835 4.000000
v 5.005774 -0.005773 4.005774
v 5.007071 2.000000 4.007071
v -3.992929 2.000000 4.007071
v -3.994226 -0.005773 4.005774
v -0.729206 0.000000 -4.010000
v -0.729206 2.000000 -4.010000
v 5.005774 -0.005773 -4.005774
v 5.007071 2.000000 -4.007071
v -4.000000 -0.008944 -3.995528
v -4.000000 2.000000 -3.990000
v -1.995918 1.995918 -3.991835
v -2.000000 0.000000 -3.990000
v -0.729206 1.853465 -4.010000
v -2.000000 1.853465 -4.010000
v 0.716887 -0.004082 -4.008165
v 0.717276 2.000000 -4.008944
v 0.718590 -0.005776 -9.014721
v 0.719892 2.000000 -9.016017
v -4.005761 -0.005771 -9.036908
v -4.007054 2.000000 -9.038208
v 1.747004 -0.008944 4.004472
v 1.747004 1.991056 4.004472
v -0.183826 -0.008944 4.004472
v -0.183826 1.991056 4.004472
v -0.183826 1.990000 4.000000
v 1.747004 1.990000 4.000000
v 1.747004 -0.010000 4.000000
v -0.183826 -0.010000 4.000000
v -0.183826 1.991056 4.004472
v 1.747004 1.991056 4.004472
v 1.747004 -0.008944 4.004472
v -0.183826 -0.008944 4.004472
v 0.350772 1.724554 4.010000
v 1.212405 1.724554 4.010000
v 1.215565 0.835054 4.009000
v 0.347612 0.835054 4.009000
v 1.217797 0.833586 3.743547
v 0.345381 0.833586 3.743547
v 1.218215 0.726242 4.005338
v 0.344963 0.726242 4.005338
v 0.350772 1.281835 3.990000
v 0.786375 1.278836 3.990641
v 0.788219 1.281835 3.990000
v 0.796333 1.724554 3.990000
v 1.213546 1.281835 3.990000
vt 0.471270 0.619176
vt 0.609679 0.621023
vt 0.613154 0.792444
vt 0.473249 0.797517
vt 0.608440 0.924697
vt 0.778055 0.932850
vt 0.780699 0.545964
vt 0.581687 0.532907
vt 0.810223 0.720047
vt 0.686987 0.720047
vt 0.686987 0.586767
vt 0.810223 0.586767
vt 0.828699 0.649964
vt 0.627021 0.636907
vt 0.627021 0.246339
vt 0.821305 0.260309
vt 0.686568 0.586767
vt 0.686568 0.771620
vt 0.563332 0.771620
vt 0.563332 0.586767
vt 0.742534 0.727941
vt 0.742534 0.671277
vt 0.786223 0.673277
vt 0.786223 0.729941
vt 0.016137 0.852756
vt 0.016307 0.480358
vt 0.289465 0.479581
vt 0.290571 0.855054
vt 0.607159 0.613464
vt 0.477793 0.412396
vt 0.609449 0.414620
vt 0.822323 0.520252
vt 0.789470 0.634401
vt 0.627223 0.499313
vt 0.688606 0.450177
vt 0.846770 0.151439
vt 0.855921 0.293293
vt 0.553916 0.293347
vt 0.541716 0.158720
vt 0.785200 0.491754
vt 0.629071 0.262033
vt 0.780702 0.264369
vt 0.108892 0.805314
vt 0.108039 0.542533
vt 0.252133 0.542424
vt 0.252133 0.813480
vt 0.486688 0.982725
vt 0.490052 0.786057
vt 0.702112 0.782195
vt 0.707637 0.984974
vt 0.414055 0.816851
vt 0.435107 0.888697
vt 0.433628 0.893940
vt 0.412404 0.815965
vt 0.351067 0.950322
vt 0.350828 0.831126
vt 0.350211 0.830057
vt 0.354814 0.947035
vt 0.351445 0.832195
vt 0.347320 0.953610
vt 0.373138 0.868844
vt 0.398511 0.859128
vt 0.396263 0.860493
vt 0.375161 0.868694
vt 0.410752 0.815079
vt 0.432149 0.899183
vt 0.832262 0.954723
vt 0.797319 0.926397
vt 0.809326 0.852333
vt 0.853347 0.807142
vt 0.860300 0.868427
vt 0.804211 0.935225
vt 0.747168 0.912934
vt 0.730148 0.799075
vt 0.691426 0.981528
vt 0.752463 0.797257
vt 0.764833 0.886369
vt 0.741636 0.969249
vt 0.690113 0.896193
vt 0.746199 0.881818
vt 0.810957 0.896760
vt 0.853202 0.925994
vt 0.397785 0.861564
vt 0.373689 0.871032
vt 0.945201 0.698471
vt 0.945201 0.678604
vt 0.958361 0.678603
vt 0.958361 0.698109
vt 0.945201 0.717024
vt 0.958361 0.717075
vt 0.471270 0.619176
vt 0.473249 0.797517
vt 0.613154 0.792444
vt 0.609679 0.621023
vt 0.608440 0.924697
vt 0.581687 0.532907
vt 0.780699 0.545964
vt 0.778055 0.932850
vt 0.810223 0.720047
vt 0.810223 0.586767
vt 0.686987 0.586767
vt 0.686987 0.720047
vt 0.828699 0.649964
vt 0.821305 0.260309
vt 0.627021 0.246339
vt 0.627021 0.636907
vt 0.686568 0.586767
vt 0.563332 0.586767
vt 0.563332 0.771620
vt 0.686568 0.771620
vt 0.742534 0.727941
vt 0.786223 0.729941
vt 0.786223 0.673277
vt 0.742534 0.671277
vt 0.016137 0.852756
vt 0.290571 0.855054
vt 0.289465 0.479581
vt 0.016307 0.480358
vt 0.607159 0.613464
vt 0.609449 0.414620
vt 0.477793 0.412396
vt 0.822323 0.520252
vt 0.688606 0.450177
vt 0.627223 0.499313
vt 0.789470 0.634401
vt 0.846770 0.151439
vt 0.541716 0.158720
vt 0.553916 0.293347
vt 0.855921 0.293293
vt 0.785200 0.491754
vt 0.780702 0.264369
vt 0.629071 0.262033
vt 0.108892 0.805314
vt 0.252133 0.813480
vt 0.252133 0.542424
vt 0.108039 0.542533
vt 0.486688 0.982725
vt 0.707637 0.984974
vt 0.702112 0.782195
vt 0.490052 0.786057
vt 0.414055 0.816851
vt 0.412404 0.815965
vt 0.433628 0.893940
vt 0.435107 0.888697
vt 0.351067 0.950322
vt 0.354814 0.947035
vt 0.350211 0.830057
vt 0.350828 0.831126
vt 0.351445 0.832195
vt 0.347320 0.953610
vt 0.373138 0.868844
vt 0.375161 0.868694
vt 0.396263 0.860493
vt 0.398511 0.859128
vt 0.410752 0.815079
vt 0.432149 0.899183
vt 0.832262 0.954723
vt 0.853347 0.807142
vt 0.809326 0.852333
vt 0.797319 0.926397
vt 0.860300 0.868427
vt 0.730148 0.799075
vt 0.747168 0.912934
vt 0.804211 0.935225
vt 0.691426 0.981528
vt 0.741636 0.969249
vt 0.764833 0.886369
vt 0.752463 0.797257
vt 0.690113 0.896193
vt 0.853202 0.925994
vt 0.810957 0.896760
vt 0.746199 0.881818
vt 0.373689 0.871032
vt 0.397785 0.861564
vt 0.945201 0.698471
vt 0.958361 0.698109
vt 0.958361 0.678603
vt 0.945201 0.678604
vt 0.945201 0.717024
vt 0.958361 0.717075
vn -1.0000 0.0000 0.0000
vn 0.0000 0.0000 -1.0000
vn 0.0000 0.0000 1.0000
vn 0.0000 1.0000 0.0000
vn 1.0000 0.0000 0.0000
vn -0.0047 0.0000 1.0000
vn 0.0000 -1.0000 0.0000
vn 0.0000 0.9338 0.3577
vn 1.0000 -0.0006 0.0000
vn 0.0005 -0.0003 1.0000
vn 0.0010 -0.0002 -1.0000
vn 1.0000 -0.0003 -0.0008
vn -0.0009 -0.0009 1.0000
vn -0.0072 0.0628 -0.9980
vn 0.0002 -1.0000 0.0002
vn 0.0005 -0.0005 -1.0000
vn 1.0000 -0.0004 0.0004
vn -1.0000 -0.0003 0.0013
vn 0.0047 -0.0006 -1.0000
vn 0.0005 -1.0000 -0.0001
vn -0.0006 -0.0003 1.0000
vn 0.0000 0.9732 -0.2298
vn 0.0000 -0.9732 0.2298
vn 0.0000 1.0000 -0.0055
vn -0.0093 -0.0003 1.0000
vn 0.0000 -0.0054 1.0000
vn 0.0093 -0.0003 1.0000
vn 0.0000 0.0207 0.9998
vn 0.0000 -0.9252 -0.3794
vn 0.9997 0.0241 0.0083
vn -0.9997 0.0241 0.0083
vn -0.0226 0.0228 -0.9995
vn 0.0238 0.0224 -0.9995
vn -0.0004 -0.5714 -0.8207
vn -0.0013 0.7901 0.6130
vn -0.0003 -0.8166 0.5772
vn 0.0026 -0.8506 -0.5257
vn 0.9756 -0.0011 -0.2195
vn 0.0011 0.9757 0.2191
vn -0.0072 0.4040 -0.9147
vn -0.3555 0.0636 -0.9325
vn -0.0006 0.0879 -0.9961
vn -0.0015 -0.9757 0.2189
vn 0.0014 -0.2723 0.9622
vn 0.0004 -0.5712 -0.8208
vn 0.0000 0.4472 0.8944
vn 0.0000 -0.4472 -0.8944
vn 0.0011 0.7908 0.6121
vn -0.9864 -0.0018 0.1643
vn 0.9864 -0.0018 0.1643
vn 0.0000 -0.3577 0.9338
vn -0.5577 0.0113 0.8300
vn 0.5577 0.0113 0.8300
vn 0.0000 0.7071 0.7071
usemtl Material
s off
f 8/1/1 7/2/1 1/3/1 2/4/1
f 24/5/2 23/6/2 4/7/2 3/8/2
f 15/9/3 16/10/3 6/11/3 5/12/3
f 4/13/1 3/14/1 10/15/1 9/16/1
f 9/17/2 10/18/2 11/19/2 12/20/2
f 6/21/3 11/22/3 14/23/3 13/24/3
f 1/25/4 7/26/4 9/27/4 4/28/4
f 7/29/3 8/1/3 16/30/3 15/31/3
f 15/32/1 16/33/1 18/34/1 17/35/1
f 10/36/5 9/37/5 19/38/5 20/39/5
f 17/40/6 18/34/6 20/41/6 19/42/6
f 17/43/4 19/44/4 9/45/4 15/46/4
f 2/47/2 1/48/2 21/49/2 22/50/2
f 23/51/3 24/52/3 25/53/3 28/54/3
f 26/55/3 27/56/3 31/57/3 30/58/3
f 21/59/3 23/51/3 28/54/3 27/56/3
f 24/52/3 22/60/3 26/55/3 25/53/3
f 22/60/3 21/59/3 27/56/3 26/55/3
f 35/61/7 36/62/7 38/63/7 37/64/7
f 27/56/3 28/54/3 32/65/3 31/57/3
f 25/53/3 26/55/3 30/58/3 29/66/3
f 28/54/3 25/53/3 29/66/3 32/65/3
f 29/67/2 33/68/2 36/69/2 32/70/2
f 32/71/2 36/72/2 35/73/2 31/74/2
f 30/75/2 31/76/2 35/77/2 34/78/2
f 30/79/2 34/80/2 33/81/2 29/82/2
f 37/64/8 38/63/8 40/83/8 39/84/8
f 37/64/1 39/84/1 35/61/1
f 38/63/5 36/62/5 40/83/5
f 44/85/3 33/86/3 41/87/3 43/88/3
f 34/89/3 44/85/3 43/88/3 45/90/3
f 53/91/9 47/92/9 46/93/9 52/94/9
f 69/95/10 48/96/10 49/97/10 68/98/10
f 60/99/11 50/100/11 51/101/11 61/102/11
f 49/103/12 54/104/12 55/105/12 48/106/12
f 54/107/13 57/108/13 56/109/13 55/110/13
f 51/111/14 58/112/14 59/113/14 56/114/14
f 46/115/15 49/116/15 54/117/15 52/118/15
f 52/119/16 60/120/16 61/121/16 53/91/16
f 60/122/17 62/123/17 63/124/17 61/125/17
f 55/126/18 65/127/18 64/128/18 54/129/18
f 62/130/19 64/131/19 65/132/19 63/124/19
f 62/133/20 60/134/20 54/135/20 64/136/20
f 47/137/21 67/138/21 66/139/21 46/140/21
f 68/141/5 73/142/5 70/143/5 69/144/5
f 71/145/5 75/146/5 76/147/5 72/148/5
f 66/149/22 72/148/22 73/142/22 68/141/22
f 69/144/23 70/143/23 71/145/23 67/150/23
f 67/150/1 71/145/1 72/148/1 66/149/1
f 80/151/24 82/152/24 83/153/24 81/154/24
f 72/148/23 76/147/23 77/155/23 73/142/23
f 70/143/22 74/156/22 75/146/22 71/145/22
f 73/142/1 77/155/1 74/156/1 70/143/1
f 74/157/25 77/158/25 81/159/25 78/160/25
f 77/161/26 76/162/26 80/163/26 81/164/26
f 75/165/27 79/166/27 80/167/27 76/168/27
f 75/169/28 74/170/28 78/171/28 79/172/28
f 82/152/29 84/173/29 85/174/29 83/153/29
f 82/152/30 80/151/30 84/173/30
f 83/153/31 85/174/31 81/154/31
f 89/175/32 88/176/32 86/177/32 78/178/32
f 79/179/33 90/180/33 88/176/33 89/175/33
f 8/1/4 2/4/4 47/92/4 53/91/4
f 4/7/34 23/6/34 68/98/34 49/97/34
f 2/47/35 22/50/35 67/138/35 47/137/35
f 7/29/36 15/31/36 60/120/36 52/119/36
f 6/11/4 16/10/4 61/102/4 51/101/4
f 5/12/1 6/11/1 51/101/1 50/100/1
f 10/15/4 3/14/4 48/106/4 55/105/4
f 9/17/37 12/20/37 57/108/37 54/107/37
f 12/20/38 11/19/38 56/109/38 57/108/38
f 11/19/39 10/18/39 55/110/39 56/109/39
f 11/22/40 6/21/40 51/111/40 56/114/40
f 13/24/7 14/23/7 59/113/7 58/112/7
f 14/23/41 11/22/41 56/114/41 59/113/41
f 6/21/5 13/24/5 58/112/5 51/111/5
f 9/27/42 7/26/42 52/118/42 54/117/42
f 15/9/43 5/12/43 50/100/43 60/99/43
f 16/30/4 8/1/4 53/91/4 61/121/4
f 18/34/4 16/33/4 61/125/4 63/124/4
f 10/36/4 20/39/4 65/127/4 55/126/4
f 20/41/4 18/34/4 63/124/4 65/132/4
f 15/46/44 9/45/44 54/135/44 60/134/44
f 21/49/45 1/48/45 46/140/45 66/139/45
f 22/60/46 24/52/46 69/144/46 67/150/46
f 23/51/47 21/59/47 66/149/47 68/141/47
f 24/5/48 3/8/48 48/96/48 69/95/48
f 33/81/7 34/80/7 79/172/7 78/171/7
f 34/78/49 35/77/49 80/167/49 79/166/49
f 36/69/50 33/68/50 78/160/50 81/159/50
f 39/84/51 40/83/51 85/174/51 84/173/51
f 35/61/52 39/84/52 84/173/52 80/151/52
f 40/83/53 36/62/53 81/154/53 85/174/53
f 41/87/4 33/86/4 78/178/4 86/177/4
f 44/85/7 34/89/7 79/179/7 89/175/7
f 45/90/7 43/88/7 88/176/7 90/180/7
f 43/88/7 41/87/7 86/177/7 88/176/7
f 33/86/7 44/85/7 89/175/7 78/178/7
f 34/89/4 45/90/4 90/180/4 79/179/4
f 1/25/54 4/28/54 49/116/54 46/115/54
l 41 42
l 42 43
l 86 87
l 87 88
